<svg width="1494" height="314" viewBox="0 0 1494 314" fill="none" xmlns="http://www.w3.org/2000/svg">
<circle cx="126.598" cy="126.598" r="126.598" fill="#FEC7A9"/>
<circle cx="192.912" cy="186.883" r="126.598" fill="#3B41C5"/>
<path d="M1014.5 236.673C1002.16 236.673 991.082 234.07 981.268 228.866C971.454 223.661 963.796 216.449 958.293 207.23C952.791 197.861 950.04 187.303 950.04 175.556C950.04 163.808 952.791 153.325 958.293 144.105C963.796 134.886 971.379 127.673 981.045 122.469C990.859 117.264 1002.01 114.662 1014.5 114.662C1026.25 114.662 1036.51 117.041 1045.28 121.8C1054.21 126.558 1060.9 133.399 1065.36 142.321L1043.95 154.812C1040.53 149.31 1036.21 145.22 1031.01 142.544C1025.95 139.718 1020.38 138.306 1014.28 138.306C1003.87 138.306 995.246 141.726 988.406 148.566C981.565 155.258 978.145 164.254 978.145 175.556C978.145 186.857 981.491 195.928 988.183 202.768C995.023 209.46 1003.72 212.806 1014.28 212.806C1020.38 212.806 1025.95 211.468 1031.01 208.791C1036.21 205.966 1040.53 201.802 1043.95 196.3L1065.36 208.791C1060.75 217.713 1053.98 224.628 1045.06 229.535C1036.29 234.294 1026.1 236.673 1014.5 236.673Z" fill="#FEC7A9"/>
<path d="M1088.37 69.605H1116.25V235.111H1088.37V69.605Z" fill="#FEC7A9"/>
<path d="M1198.35 114.662C1215.9 114.662 1229.28 118.9 1238.5 127.376C1247.87 135.703 1252.55 148.343 1252.55 165.295V235.111H1226.23V220.613C1222.81 225.817 1217.91 229.832 1211.51 232.658C1205.27 235.334 1197.68 236.673 1188.76 236.673C1179.84 236.673 1172.03 235.186 1165.34 232.212C1158.65 229.089 1153.44 224.851 1149.73 219.498C1146.16 213.996 1144.37 207.824 1144.37 200.984C1144.37 190.277 1148.31 181.727 1156.2 175.333C1164.23 168.79 1176.79 165.518 1193.89 165.518H1224.67V163.734C1224.67 155.407 1222.14 149.012 1217.09 144.551C1212.18 140.09 1204.82 137.86 1195.01 137.86C1188.31 137.86 1181.7 138.901 1175.15 140.982C1168.76 143.064 1163.33 145.964 1158.87 149.682L1147.94 129.384C1154.19 124.625 1161.7 120.982 1170.47 118.454C1179.24 115.926 1188.54 114.662 1198.35 114.662ZM1194.56 216.375C1201.55 216.375 1207.72 214.813 1213.07 211.691C1218.58 208.419 1222.44 203.809 1224.67 197.861V184.032H1195.9C1179.84 184.032 1171.81 189.311 1171.81 199.869C1171.81 204.925 1173.82 208.94 1177.83 211.914C1181.85 214.888 1187.42 216.375 1194.56 216.375Z" fill="#FEC7A9"/>
<path d="M1325.14 236.673C1315.48 236.673 1306.03 235.409 1296.81 232.881C1287.59 230.353 1280.23 227.156 1274.73 223.29L1285.44 202.099C1290.79 205.668 1297.19 208.568 1304.62 210.798C1312.2 212.88 1319.64 213.921 1326.93 213.921C1343.58 213.921 1351.91 209.534 1351.91 200.761C1351.91 196.597 1349.75 193.698 1345.44 192.062C1341.28 190.426 1334.51 188.865 1325.14 187.378C1315.33 185.891 1307.3 184.181 1301.05 182.247C1294.95 180.314 1289.6 176.969 1284.99 172.21C1280.53 167.303 1278.3 160.537 1278.3 151.912C1278.3 140.611 1282.98 131.614 1292.35 124.922C1301.87 118.082 1314.66 114.662 1330.72 114.662C1338.9 114.662 1347.08 115.629 1355.25 117.562C1363.43 119.346 1370.12 121.8 1375.33 124.922L1364.62 146.113C1354.51 140.165 1343.13 137.19 1330.49 137.19C1322.32 137.19 1316.07 138.454 1311.76 140.982C1307.59 143.362 1305.51 146.559 1305.51 150.574C1305.51 155.035 1307.74 158.232 1312.2 160.165C1316.81 161.95 1323.88 163.66 1333.39 165.295C1342.91 166.782 1350.72 168.492 1356.82 170.426C1362.91 172.359 1368.12 175.63 1372.43 180.24C1376.89 184.85 1379.12 191.393 1379.12 199.869C1379.12 211.022 1374.29 219.944 1364.62 226.635C1354.96 233.327 1341.8 236.673 1325.14 236.673Z" fill="#FEC7A9"/>
<path d="M1439.94 236.673C1430.27 236.673 1420.83 235.409 1411.61 232.881C1402.39 230.353 1395.03 227.156 1389.53 223.29L1400.23 202.099C1405.59 205.668 1411.98 208.568 1419.42 210.798C1427 212.88 1434.43 213.921 1441.72 213.921C1458.38 213.921 1466.7 209.534 1466.7 200.761C1466.7 196.597 1464.55 193.698 1460.23 192.062C1456.07 190.426 1449.3 188.865 1439.94 187.378C1430.12 185.891 1422.09 184.181 1415.85 182.247C1409.75 180.314 1404.4 176.969 1399.79 172.21C1395.33 167.303 1393.09 160.537 1393.09 151.912C1393.09 140.611 1397.78 131.614 1407.15 124.922C1416.66 118.082 1429.45 114.662 1445.51 114.662C1453.69 114.662 1461.87 115.629 1470.05 117.562C1478.23 119.346 1484.92 121.8 1490.12 124.922L1479.42 146.113C1469.3 140.165 1457.93 137.19 1445.29 137.19C1437.11 137.19 1430.87 138.454 1426.55 140.982C1422.39 143.362 1420.31 146.559 1420.31 150.574C1420.31 155.035 1422.54 158.232 1427 160.165C1431.61 161.95 1438.67 163.66 1448.19 165.295C1457.71 166.782 1465.51 168.492 1471.61 170.426C1477.71 172.359 1482.91 175.63 1487.22 180.24C1491.68 184.85 1493.92 191.393 1493.92 199.869C1493.92 211.022 1489.08 219.944 1479.42 226.635C1469.75 233.327 1456.59 236.673 1439.94 236.673Z" fill="#FEC7A9"/>
<path d="M565.805 116L521.863 235.111H495.097L464.315 153.027L433.087 235.111H406.321L362.602 116H388.923L420.373 203.884L453.162 116H476.583L508.703 204.33L541.046 116H565.805Z" fill="#3B41C5"/>
<path d="M635.241 236.673C623.196 236.673 612.341 234.071 602.675 228.866C593.009 223.661 585.425 216.449 579.923 207.23C574.57 197.861 571.893 187.303 571.893 175.556C571.893 163.808 574.57 153.325 579.923 144.105C585.425 134.886 593.009 127.674 602.675 122.469C612.341 117.264 623.196 114.662 635.241 114.662C647.435 114.662 658.364 117.264 668.03 122.469C677.696 127.674 685.205 134.886 690.558 144.105C696.06 153.325 698.811 163.808 698.811 175.556C698.811 187.303 696.06 197.861 690.558 207.23C685.205 216.449 677.696 223.661 668.03 228.866C658.364 234.071 647.435 236.673 635.241 236.673ZM635.241 212.806C645.501 212.806 653.977 209.386 660.669 202.546C667.361 195.705 670.707 186.709 670.707 175.556C670.707 164.403 667.361 155.407 660.669 148.566C653.977 141.726 645.501 138.306 635.241 138.306C624.98 138.306 616.504 141.726 609.813 148.566C603.27 155.407 599.998 164.403 599.998 175.556C599.998 186.709 603.27 195.705 609.813 202.546C616.504 209.386 624.98 212.806 635.241 212.806Z" fill="#3B41C5"/>
<path d="M752.017 133.399C760.047 120.908 774.174 114.662 794.397 114.662V141.206C792.018 140.759 789.862 140.536 787.929 140.536C777.073 140.536 768.597 143.734 762.5 150.128C756.404 156.373 753.355 165.444 753.355 177.34V235.111H725.473V116H752.017V133.399Z" fill="#3B41C5"/>
<path d="M866.676 184.032L845.932 203.661V235.111H818.05V69.6051H845.932V169.533L903.703 116H937.161L887.42 165.965L941.845 235.111H907.941L866.676 184.032Z" fill="#3B41C5"/>
</svg>
